ffmpeg started on 2025-05-24 at 14:27:51
Report written to "D:\Convert\FFMetrics\reports\ssim_report-6.txt"
Log level: 32
Command line:
ffmpeg -hide_banner -nostdin -i "G:\\\xc0\xed\xe8\xec\xe5\\\xce\xed\xe3\xee\xe8\xed\xe3\xe8\\!_33_\xc7\xe8\xec\xe0_2024\\DreamCast\\\xc2\xf0\xe5\xec\xff \xef\xfb\xf2\xee\xea, \xef\xf0\xe8\xed\xf6\xe5\xf1\xf1\xe0!\\[DC] Hime-sama Goumon no Jikan Desu - 01_Telegram_HEVC.mkv" -i "G:\\\xc0\xed\xe8\xec\xe5\\\xce\xed\xe3\xee\xe8\xed\xe3\xe8\\!_33_\xc7\xe8\xec\xe0_2024\\DreamCast\\\xc2\xf0\xe5\xec\xff \xef\xfb\xf2\xee\xea, \xef\xf0\xe8\xed\xf6\xe5\xf1\xf1\xe0!\\[DC] Hime-sama Goumon no Jikan Desu - 01_Telegram.mp4" -lavfi "[0:v]settb=AVTB,setpts=PTS-STARTPTS,format=pix_fmts=yuv420p10,fps=24000/1001,scale=1920:1080:flags=bicubic[main];[1:v]settb=AVTB,setpts=PTS-STARTPTS,format=pix_fmts=yuv420p,fps=24000/1001,scale=1920:1080:flags=bicubic[ref];[main][ref]ssim=eof_action=endall:stats_file='D\\:/Convert/FFMetrics/logs/ssim_logfile-6.txt'" -f null -
Input #0, matroska,webm, from 'G:\Аниме\Онгоинги\!_33_Зима_2024\DreamCast\Время пыток, принцесса!\[DC] Hime-sama Goumon no Jikan Desu - 01_Telegram_HEVC.mkv':
  Metadata:
    COMPATIBLE_BRANDS: isomiso2avc1mp41
    MAJOR_BRAND     : isom
    MINOR_VERSION   : 512
    ENCODER         : Lavf61.7.100
  Duration: 00:23:46.73, start: -0.021000, bitrate: 1272 kb/s
  Stream #0:0: Video: hevc (Main 10), yuv420p10le(tv, bt709, progressive), 1920x1080 [SAR 1:1 DAR 16:9], 23.98 fps, 23.98 tbr, 1k tbn (default)
      Metadata:
        HANDLER_NAME    : VideoHandler
        VENDOR_ID       : [0][0][0][0]
        ENCODER         : Lavc61.19.100 libx265
        BPS             : 1074628
        DURATION        : 00:23:46.633708333
        NUMBER_OF_FRAMES: 34205
        NUMBER_OF_BYTES : 191637473
        _STATISTICS_WRITING_APP: mkvpropedit v66.0.0 ('Josie') 64-bit
        _STATISTICS_WRITING_DATE_UTC: 2025-05-21 14:02:14
        _STATISTICS_TAGS: BPS DURATION NUMBER_OF_FRAMES NUMBER_OF_BYTES
  Stream #0:1: Audio: aac (LC), 48000 Hz, stereo, fltp (default)
      Metadata:
        HANDLER_NAME    : SoundHandler
        VENDOR_ID       : [0][0][0][0]
        ENCODER         : Lavc61.19.100 aac
        BPS             : 193652
        DURATION        : 00:23:46.730000000
        NUMBER_OF_FRAMES: 66879
        NUMBER_OF_BYTES : 34536164
        _STATISTICS_WRITING_APP: mkvpropedit v66.0.0 ('Josie') 64-bit
        _STATISTICS_WRITING_DATE_UTC: 2025-05-21 14:02:14
        _STATISTICS_TAGS: BPS DURATION NUMBER_OF_FRAMES NUMBER_OF_BYTES
Input #1, mov,mp4,m4a,3gp,3g2,mj2, from 'G:\Аниме\Онгоинги\!_33_Зима_2024\DreamCast\Время пыток, принцесса!\[DC] Hime-sama Goumon no Jikan Desu - 01_Telegram.mp4':
  Metadata:
    major_brand     : isom
    minor_version   : 512
    compatible_brands: isomiso2avc1mp41
    encoder         : Lavf60.18.100
  Duration: 00:23:46.70, start: 0.000000, bitrate: 3706 kb/s
  Stream #1:0[0x1](und): Video: h264 (High) (avc1 / 0x31637661), yuv420p(tv, bt709, progressive), 1920x1080 [SAR 1:1 DAR 16:9], 3558 kb/s, 23.98 fps, 23.98 tbr, 24k tbn (default)
      Metadata:
        handler_name    : VideoHandler
        vendor_id       : [0][0][0][0]
        encoder         : Lavc60.35.100 h264_qsv
  Stream #1:1[0x2](und): Audio: aac (HE-AACv2) (mp4a / 0x6134706D), 48000 Hz, stereo, fltp, 144 kb/s (default)
      Metadata:
        handler_name    : SoundHandler
        vendor_id       : [0][0][0][0]
Stream mapping:
  Stream #0:0 (hevc) -> settb:default
  Stream #1:0 (h264) -> settb:default
  ssim:default -> Stream #0:0 (wrapped_avframe)
  Stream #0:1 -> #0:1 (aac (native) -> pcm_s16le (native))
Output #0, null, to 'pipe:':
  Metadata:
    COMPATIBLE_BRANDS: isomiso2avc1mp41
    MAJOR_BRAND     : isom
    MINOR_VERSION   : 512
    encoder         : Lavf61.7.100
  Stream #0:0: Video: wrapped_avframe, yuv420p10le(tv, bt709, progressive), 1920x1080 [SAR 1:1 DAR 16:9], q=2-31, 200 kb/s, 23.98 fps, 23.98 tbn
      Metadata:
        encoder         : Lavc61.19.100 wrapped_avframe
  Stream #0:1: Audio: pcm_s16le, 48000 Hz, stereo, s16, 1536 kb/s (default)
      Metadata:
        HANDLER_NAME    : SoundHandler
        VENDOR_ID       : [0][0][0][0]
        _STATISTICS_TAGS: BPS DURATION NUMBER_OF_FRAMES NUMBER_OF_BYTES
        BPS             : 193652
        DURATION        : 00:23:46.730000000
        NUMBER_OF_FRAMES: 66879
        NUMBER_OF_BYTES : 34536164
        _STATISTICS_WRITING_APP: mkvpropedit v66.0.0 ('Josie') 64-bit
        _STATISTICS_WRITING_DATE_UTC: 2025-05-21 14:02:14
        encoder         : Lavc61.19.100 pcm_s16le
frame=  181 fps=0.0 q=-0.0 size=N/A time=00:00:07.54 bitrate=N/A speed=14.6x    frame=  427 fps=409 q=-0.0 size=N/A time=00:00:17.80 bitrate=N/A speed=17.1x    frame=  684 fps=440 q=-0.0 size=N/A time=00:00:28.52 bitrate=N/A speed=18.4x    frame=  961 fps=465 q=-0.0 size=N/A time=00:00:40.08 bitrate=N/A speed=19.4x    frame= 1197 fps=462 q=-0.0 size=N/A time=00:00:49.92 bitrate=N/A speed=19.3x    frame= 1452 fps=468 q=-0.0 size=N/A time=00:01:00.56 bitrate=N/A speed=19.5x    frame= 1669 fps=462 q=-0.0 size=N/A time=00:01:09.61 bitrate=N/A speed=19.3x    frame= 1907 fps=461 q=-0.0 size=N/A time=00:01:19.53 bitrate=N/A speed=19.2x    frame= 2127 fps=457 q=-0.0 size=N/A time=00:01:28.71 bitrate=N/A speed=19.1x    frame= 2350 fps=456 q=-0.0 size=N/A time=00:01:38.01 bitrate=N/A speed=  19x    frame= 2599 fps=457 q=-0.0 size=N/A time=00:01:48.39 bitrate=N/A speed=19.1x    frame= 2815 fps=454 q=-0.0 size=N/A time=00:01:57.40 bitrate=N/A speed=  19x    frame= 3054 fps=455 q=-0.0 size=N/A time=00:02:07.37 bitrate=N/A speed=  19x    frame= 3278 fps=453 q=-0.0 size=N/A time=00:02:16.71 bitrate=N/A speed=18.9x    frame= 3540 fps=457 q=-0.0 size=N/A time=00:02:27.64 bitrate=N/A speed=19.1x    frame= 3779 fps=458 q=-0.0 size=N/A time=00:02:37.61 bitrate=N/A speed=19.1x    frame= 4026 fps=459 q=-0.0 size=N/A time=00:02:47.91 bitrate=N/A speed=19.1x    frame= 4276 fps=460 q=-0.0 size=N/A time=00:02:58.34 bitrate=N/A speed=19.2x    frame= 4532 fps=463 q=-0.0 size=N/A time=00:03:09.02 bitrate=N/A speed=19.3x    frame= 4805 fps=465 q=-0.0 size=N/A time=00:03:20.40 bitrate=N/A speed=19.4x    frame= 5070 fps=468 q=-0.0 size=N/A time=00:03:31.46 bitrate=N/A speed=19.5x    frame= 5333 fps=470 q=-0.0 size=N/A time=00:03:42.43 bitrate=N/A speed=19.6x    frame= 5596 fps=472 q=-0.0 size=N/A time=00:03:53.39 bitrate=N/A speed=19.7x    frame= 5846 fps=472 q=-0.0 size=N/A time=00:04:03.82 bitrate=N/A speed=19.7x    frame= 6117 fps=474 q=-0.0 size=N/A time=00:04:15.12 bitrate=N/A speed=19.8x    frame= 6397 fps=477 q=-0.0 size=N/A time=00:04:26.80 bitrate=N/A speed=19.9x    frame= 6666 fps=479 q=-0.0 size=N/A time=00:04:38.02 bitrate=N/A speed=  20x    frame= 6942 fps=480 q=-0.0 size=N/A time=00:04:49.53 bitrate=N/A speed=  20x    frame= 7212 fps=482 q=-0.0 size=N/A time=00:05:00.80 bitrate=N/A speed=20.1x    frame= 7480 fps=483 q=-0.0 size=N/A time=00:05:11.97 bitrate=N/A speed=20.1x    frame= 7734 fps=483 q=-0.0 size=N/A time=00:05:22.57 bitrate=N/A speed=20.2x    frame= 7967 fps=482 q=-0.0 size=N/A time=00:05:32.29 bitrate=N/A speed=20.1x    frame= 8170 fps=480 q=-0.0 size=N/A time=00:05:40.75 bitrate=N/A speed=  20x    frame= 8364 fps=477 q=-0.0 size=N/A time=00:05:48.84 bitrate=N/A speed=19.9x    frame= 8620 fps=477 q=-0.0 size=N/A time=00:05:59.52 bitrate=N/A speed=19.9x    frame= 8854 fps=476 q=-0.0 size=N/A time=00:06:09.28 bitrate=N/A speed=19.9x    frame= 9060 fps=474 q=-0.0 size=N/A time=00:06:17.87 bitrate=N/A speed=19.8x    frame= 9260 fps=472 q=-0.0 size=N/A time=00:06:26.21 bitrate=N/A speed=19.7x    frame= 9457 fps=470 q=-0.0 size=N/A time=00:06:34.43 bitrate=N/A speed=19.6x    frame= 9640 fps=467 q=-0.0 size=N/A time=00:06:42.06 bitrate=N/A speed=19.5x    frame= 9851 fps=466 q=-0.0 size=N/A time=00:06:50.86 bitrate=N/A speed=19.4x    frame=10110 fps=466 q=-0.0 size=N/A time=00:07:01.67 bitrate=N/A speed=19.4x    frame=10326 fps=465 q=-0.0 size=N/A time=00:07:10.68 bitrate=N/A speed=19.4x    frame=10525 fps=464 q=-0.0 size=N/A time=00:07:18.98 bitrate=N/A speed=19.3x    frame=10727 fps=462 q=-0.0 size=N/A time=00:07:27.40 bitrate=N/A speed=19.3x    frame=10966 fps=462 q=-0.0 size=N/A time=00:07:37.37 bitrate=N/A speed=19.3x    frame=11216 fps=463 q=-0.0 size=N/A time=00:07:47.80 bitrate=N/A speed=19.3x    frame=11468 fps=463 q=-0.0 size=N/A time=00:07:58.31 bitrate=N/A speed=19.3x    frame=11718 fps=463 q=-0.0 size=N/A time=00:08:08.73 bitrate=N/A speed=19.3x    frame=11957 fps=464 q=-0.0 size=N/A time=00:08:18.70 bitrate=N/A speed=19.3x    frame=12157 fps=462 q=-0.0 size=N/A time=00:08:27.04 bitrate=N/A speed=19.3x    frame=12402 fps=462 q=-0.0 size=N/A time=00:08:37.26 bitrate=N/A speed=19.3x    frame=12614 fps=461 q=-0.0 size=N/A time=00:08:46.10 bitrate=N/A speed=19.2x    frame=12873 fps=462 q=-0.0 size=N/A time=00:08:56.91 bitrate=N/A speed=19.3x    frame=13125 fps=462 q=-0.0 size=N/A time=00:09:07.42 bitrate=N/A speed=19.3x    frame=13365 fps=463 q=-0.0 size=N/A time=00:09:17.43 bitrate=N/A speed=19.3x    frame=13638 fps=464 q=-0.0 size=N/A time=00:09:28.81 bitrate=N/A speed=19.3x    frame=13889 fps=464 q=-0.0 size=N/A time=00:09:39.28 bitrate=N/A speed=19.4x    frame=14141 fps=465 q=-0.0 size=N/A time=00:09:49.79 bitrate=N/A speed=19.4x    frame=14372 fps=464 q=-0.0 size=N/A time=00:09:59.43 bitrate=N/A speed=19.4x    frame=14629 fps=465 q=-0.0 size=N/A time=00:10:10.15 bitrate=N/A speed=19.4x    frame=14881 fps=465 q=-0.0 size=N/A time=00:10:20.66 bitrate=N/A speed=19.4x    frame=15085 fps=464 q=-0.0 size=N/A time=00:10:29.17 bitrate=N/A speed=19.4x    frame=15346 fps=465 q=-0.0 size=N/A time=00:10:40.05 bitrate=N/A speed=19.4x    frame=15625 fps=466 q=-0.0 size=N/A time=00:10:51.69 bitrate=N/A speed=19.4x    frame=15899 fps=467 q=-0.0 size=N/A time=00:11:03.12 bitrate=N/A speed=19.5x    frame=16151 fps=467 q=-0.0 size=N/A time=00:11:13.63 bitrate=N/A speed=19.5x    frame=16383 fps=467 q=-0.0 size=N/A time=00:11:23.30 bitrate=N/A speed=19.5x    frame=16613 fps=466 q=-0.0 size=N/A time=00:11:32.90 bitrate=N/A speed=19.5x    frame=16895 fps=468 q=-0.0 size=N/A time=00:11:44.66 bitrate=N/A speed=19.5x    frame=17175 fps=469 q=-0.0 size=N/A time=00:11:56.34 bitrate=N/A speed=19.6x    frame=17422 fps=469 q=-0.0 size=N/A time=00:12:06.64 bitrate=N/A speed=19.6x    frame=17616 fps=468 q=-0.0 size=N/A time=00:12:14.73 bitrate=N/A speed=19.5x    frame=17868 fps=468 q=-0.0 size=N/A time=00:12:25.24 bitrate=N/A speed=19.5x    frame=18129 fps=468 q=-0.0 size=N/A time=00:12:36.13 bitrate=N/A speed=19.5x    frame=18392 fps=469 q=-0.0 size=N/A time=00:12:47.09 bitrate=N/A speed=19.6x    frame=18634 fps=469 q=-0.0 size=N/A time=00:12:57.19 bitrate=N/A speed=19.6x    frame=18862 fps=469 q=-0.0 size=N/A time=00:13:06.70 bitrate=N/A speed=19.5x    frame=19059 fps=468 q=-0.0 size=N/A time=00:13:14.91 bitrate=N/A speed=19.5x    frame=19298 fps=467 q=-0.0 size=N/A time=00:13:24.88 bitrate=N/A speed=19.5x    frame=19537 fps=467 q=-0.0 size=N/A time=00:13:34.85 bitrate=N/A speed=19.5x    frame=19778 fps=467 q=-0.0 size=N/A time=00:13:44.90 bitrate=N/A speed=19.5x    frame=20013 fps=467 q=-0.0 size=N/A time=00:13:54.70 bitrate=N/A speed=19.5x    frame=20244 fps=467 q=-0.0 size=N/A time=00:14:04.34 bitrate=N/A speed=19.5x    frame=20435 fps=466 q=-0.0 size=N/A time=00:14:12.30 bitrate=N/A speed=19.4x    frame=20695 fps=466 q=-0.0 size=N/A time=00:14:23.15 bitrate=N/A speed=19.4x    frame=20916 fps=466 q=-0.0 size=N/A time=00:14:32.37 bitrate=N/A speed=19.4x    frame=21085 fps=464 q=-0.0 size=N/A time=00:14:39.42 bitrate=N/A speed=19.4x    frame=21298 fps=464 q=-0.0 size=N/A time=00:14:48.30 bitrate=N/A speed=19.3x    frame=21496 fps=463 q=-0.0 size=N/A time=00:14:56.56 bitrate=N/A speed=19.3x    frame=21710 fps=462 q=-0.0 size=N/A time=00:15:05.48 bitrate=N/A speed=19.3x    frame=21955 fps=462 q=-0.0 size=N/A time=00:15:15.70 bitrate=N/A speed=19.3x    frame=22206 fps=463 q=-0.0 size=N/A time=00:15:26.17 bitrate=N/A speed=19.3x    frame=22458 fps=463 q=-0.0 size=N/A time=00:15:36.68 bitrate=N/A speed=19.3x    frame=22711 fps=463 q=-0.0 size=N/A time=00:15:47.23 bitrate=N/A speed=19.3x    frame=22976 fps=464 q=-0.0 size=N/A time=00:15:58.29 bitrate=N/A speed=19.3x    frame=23250 fps=464 q=-0.0 size=N/A time=00:16:09.71 bitrate=N/A speed=19.4x    frame=23530 fps=465 q=-0.0 size=N/A time=00:16:21.39 bitrate=N/A speed=19.4x    frame=23780 fps=466 q=-0.0 size=N/A time=00:16:31.82 bitrate=N/A speed=19.4x    frame=24031 fps=466 q=-0.0 size=N/A time=00:16:42.29 bitrate=N/A speed=19.4x    frame=24236 fps=465 q=-0.0 size=N/A time=00:16:50.84 bitrate=N/A speed=19.4x    frame=24469 fps=465 q=-0.0 size=N/A time=00:17:00.56 bitrate=N/A speed=19.4x    frame=24697 fps=465 q=-0.0 size=N/A time=00:17:10.07 bitrate=N/A speed=19.4x    frame=24937 fps=465 q=-0.0 size=N/A time=00:17:20.08 bitrate=N/A speed=19.4x    frame=25190 fps=465 q=-0.0 size=N/A time=00:17:30.63 bitrate=N/A speed=19.4x    frame=25441 fps=465 q=-0.0 size=N/A time=00:17:41.10 bitrate=N/A speed=19.4x    frame=25705 fps=466 q=-0.0 size=N/A time=00:17:52.11 bitrate=N/A speed=19.4x    frame=25957 fps=466 q=-0.0 size=N/A time=00:18:02.62 bitrate=N/A speed=19.4x    frame=26182 fps=466 q=-0.0 size=N/A time=00:18:12.00 bitrate=N/A speed=19.4x    frame=26440 fps=466 q=-0.0 size=N/A time=00:18:22.76 bitrate=N/A speed=19.4x    frame=26646 fps=465 q=-0.0 size=N/A time=00:18:31.36 bitrate=N/A speed=19.4x    frame=26871 fps=465 q=-0.0 size=N/A time=00:18:40.74 bitrate=N/A speed=19.4x    frame=27133 fps=465 q=-0.0 size=N/A time=00:18:51.67 bitrate=N/A speed=19.4x    frame=27394 fps=466 q=-0.0 size=N/A time=00:19:02.55 bitrate=N/A speed=19.4x    frame=27633 fps=466 q=-0.0 size=N/A time=00:19:12.52 bitrate=N/A speed=19.4x    frame=27856 fps=465 q=-0.0 size=N/A time=00:19:21.82 bitrate=N/A speed=19.4x    frame=28067 fps=465 q=-0.0 size=N/A time=00:19:30.62 bitrate=N/A speed=19.4x    frame=28320 fps=465 q=-0.0 size=N/A time=00:19:41.18 bitrate=N/A speed=19.4x    frame=28585 fps=466 q=-0.0 size=N/A time=00:19:52.23 bitrate=N/A speed=19.4x    frame=28864 fps=466 q=-0.0 size=N/A time=00:20:03.86 bitrate=N/A speed=19.4x    frame=29144 fps=467 q=-0.0 size=N/A time=00:20:15.54 bitrate=N/A speed=19.5x    frame=29422 fps=467 q=-0.0 size=N/A time=00:20:27.14 bitrate=N/A speed=19.5x    frame=29687 fps=468 q=-0.0 size=N/A time=00:20:38.19 bitrate=N/A speed=19.5x    frame=29933 fps=468 q=-0.0 size=N/A time=00:20:48.45 bitrate=N/A speed=19.5x    frame=30130 fps=467 q=-0.0 size=N/A time=00:20:56.67 bitrate=N/A speed=19.5x    frame=30286 fps=466 q=-0.0 size=N/A time=00:21:03.17 bitrate=N/A speed=19.4x    frame=30463 fps=465 q=-0.0 size=N/A time=00:21:10.56 bitrate=N/A speed=19.4x    frame=30658 fps=464 q=-0.0 size=N/A time=00:21:18.69 bitrate=N/A speed=19.4x    frame=30874 fps=464 q=-0.0 size=N/A time=00:21:27.70 bitrate=N/A speed=19.3x    frame=31063 fps=463 q=-0.0 size=N/A time=00:21:35.58 bitrate=N/A speed=19.3x    frame=31274 fps=463 q=-0.0 size=N/A time=00:21:44.38 bitrate=N/A speed=19.3x    frame=31471 fps=462 q=-0.0 size=N/A time=00:21:52.60 bitrate=N/A speed=19.3x    frame=31599 fps=461 q=-0.0 size=N/A time=00:21:57.94 bitrate=N/A speed=19.2x    frame=31783 fps=460 q=-0.0 size=N/A time=00:22:05.61 bitrate=N/A speed=19.2x    frame=31986 fps=459 q=-0.0 size=N/A time=00:22:14.08 bitrate=N/A speed=19.2x    frame=32210 fps=459 q=-0.0 size=N/A time=00:22:23.42 bitrate=N/A speed=19.1x    frame=32440 fps=459 q=-0.0 size=N/A time=00:22:33.01 bitrate=N/A speed=19.1x    frame=32680 fps=459 q=-0.0 size=N/A time=00:22:43.02 bitrate=N/A speed=19.1x    frame=32906 fps=459 q=-0.0 size=N/A time=00:22:52.45 bitrate=N/A speed=19.1x    frame=33131 fps=459 q=-0.0 size=N/A time=00:23:01.83 bitrate=N/A speed=19.1x    frame=33370 fps=459 q=-0.0 size=N/A time=00:23:11.80 bitrate=N/A speed=19.1x    frame=33585 fps=459 q=-0.0 size=N/A time=00:23:20.77 bitrate=N/A speed=19.1x    frame=33830 fps=459 q=-0.0 size=N/A time=00:23:30.99 bitrate=N/A speed=19.1x    frame=34063 fps=459 q=-0.0 size=N/A time=00:23:40.71 bitrate=N/A speed=19.1x    [Parsed_ssim_10 @ 00000291ef8d5d80] SSIM Y:0.995181 (23.170584) U:0.994268 (22.416928) V:0.994800 (22.839640) All:0.994965 (22.980332)
[out#0/null @ 00000291e24feec0] video:14697KiB audio:267516KiB subtitle:0KiB other streams:0KiB global headers:0KiB muxing overhead: unknown
frame=34205 fps=458 q=-0.0 Lsize=N/A time=00:23:46.63 bitrate=N/A speed=19.1x    
